<svg xmlns="http://www.w3.org/2000/svg" xmlns:xlink="http://www.w3.org/1999/xlink" width="500" zoomAndPan="magnify" viewBox="0 0 375 374.999991" height="500" preserveAspectRatio="xMidYMid meet" version="1.0"><defs><clipPath id="0a812ac929"><path d="M 131.039062 124.789062 L 242.648438 124.789062 L 242.648438 157.3125 L 131.039062 157.3125 Z M 131.039062 124.789062 " clip-rule="nonzero"/></clipPath><clipPath id="35aa52de10"><path d="M 160.824219 157.515625 L 213.824219 157.515625 L 213.824219 210.511719 L 160.824219 210.511719 Z M 160.824219 157.515625 " clip-rule="nonzero"/></clipPath><clipPath id="97e39aaf8c"><path d="M 195.277344 160.851562 L 210.488281 176.058594 C 212.597656 178.167969 213.78125 181.03125 213.78125 184.015625 C 213.78125 186.996094 212.597656 189.859375 210.488281 191.96875 L 195.277344 207.175781 C 193.167969 209.285156 190.308594 210.472656 187.324219 210.472656 C 184.339844 210.472656 181.480469 209.285156 179.367188 207.175781 L 164.160156 191.96875 C 162.050781 189.859375 160.867188 186.996094 160.867188 184.015625 C 160.867188 181.03125 162.050781 178.167969 164.160156 176.058594 L 179.367188 160.851562 C 181.480469 158.742188 184.339844 157.554688 187.324219 157.554688 C 190.308594 157.554688 193.167969 158.742188 195.277344 160.851562 Z M 195.277344 160.851562 " clip-rule="nonzero"/></clipPath><clipPath id="9fac576c79"><path d="M 40.910156 17 L 334.089844 17 L 334.089844 350.800781 L 40.910156 350.800781 Z M 40.910156 17 " clip-rule="nonzero"/></clipPath><clipPath id="becf59b84e"><path d="M 200.464844 20.496094 L 321.125 90.699219 C 329.152344 95.371094 334.089844 103.957031 334.089844 113.246094 L 334.089844 253.824219 C 334.089844 263.109375 329.152344 271.695312 321.125 276.367188 L 200.464844 346.570312 C 192.449219 351.234375 182.550781 351.234375 174.535156 346.570312 L 53.875 276.367188 C 45.847656 271.695312 40.910156 263.109375 40.910156 253.824219 L 40.910156 113.246094 C 40.910156 103.957031 45.847656 95.371094 53.875 90.699219 L 174.535156 20.496094 C 182.550781 15.835938 192.449219 15.835938 200.464844 20.496094 Z M 200.464844 20.496094 " clip-rule="nonzero"/></clipPath><clipPath id="b26c705667"><path d="M 89.882812 176.132812 L 132.207031 176.132812 L 132.207031 276.324219 L 89.882812 276.324219 Z M 89.882812 176.132812 " clip-rule="nonzero"/></clipPath><clipPath id="4bb848f88a"><path d="M 101.132812 176.132812 L 120.957031 176.132812 C 127.167969 176.132812 132.207031 181.167969 132.207031 187.382812 L 132.207031 264.992188 C 132.207031 271.207031 127.167969 276.242188 120.957031 276.242188 L 101.132812 276.242188 C 94.917969 276.242188 89.882812 271.207031 89.882812 264.992188 L 89.882812 187.382812 C 89.882812 181.167969 94.917969 176.132812 101.132812 176.132812 Z M 101.132812 176.132812 " clip-rule="nonzero"/></clipPath><clipPath id="b11cfe5e99"><path d="M 242.648438 90.824219 L 284.972656 90.824219 L 284.972656 276.324219 L 242.648438 276.324219 Z M 242.648438 90.824219 " clip-rule="nonzero"/></clipPath><clipPath id="a3eded812b"><path d="M 253.898438 90.824219 L 273.722656 90.824219 C 279.9375 90.824219 284.972656 95.863281 284.972656 102.074219 L 284.972656 264.992188 C 284.972656 267.976562 283.789062 270.835938 281.679688 272.945312 C 279.570312 275.058594 276.707031 276.242188 273.722656 276.242188 L 253.898438 276.242188 C 250.914062 276.242188 248.054688 275.058594 245.945312 272.945312 C 243.835938 270.835938 242.648438 267.976562 242.648438 264.992188 L 242.648438 102.074219 C 242.648438 95.863281 247.6875 90.824219 253.898438 90.824219 Z M 253.898438 90.824219 " clip-rule="nonzero"/></clipPath><clipPath id="be5752f233"><path d="M 160 91 L 281 91 L 281 211 L 160 211 Z M 160 91 " clip-rule="nonzero"/></clipPath><clipPath id="ac177a801e"><path d="M 254.003906 86.367188 L 284.96875 117.332031 L 187.113281 215.1875 L 156.148438 184.222656 Z M 254.003906 86.367188 " clip-rule="nonzero"/></clipPath><clipPath id="01c6b33a74"><path d="M 261.960938 94.320312 L 277.015625 109.375 C 281.40625 113.769531 281.40625 120.894531 277.015625 125.285156 L 195.121094 207.179688 C 193.011719 209.289062 190.152344 210.472656 187.167969 210.472656 C 184.183594 210.472656 181.320312 209.289062 179.210938 207.179688 L 164.15625 192.125 C 159.761719 187.730469 159.761719 180.605469 164.15625 176.214844 L 246.050781 94.320312 C 250.441406 89.929688 257.566406 89.929688 261.960938 94.320312 Z M 261.960938 94.320312 " clip-rule="nonzero"/></clipPath><clipPath id="a5fbe45791"><path d="M 94 91 L 214 91 L 214 211 L 94 211 Z M 94 91 " clip-rule="nonzero"/></clipPath><clipPath id="497c6e113c"><path d="M 89.675781 117.324219 L 120.640625 86.359375 L 218.496094 184.214844 L 187.53125 215.179688 Z M 89.675781 117.324219 " clip-rule="nonzero"/></clipPath><clipPath id="786c342364"><path d="M 97.628906 109.371094 L 112.6875 94.3125 C 117.078125 89.921875 124.203125 89.921875 128.597656 94.3125 L 210.488281 176.207031 C 212.597656 178.316406 213.78125 181.175781 213.78125 184.160156 C 213.78125 187.144531 212.597656 190.007812 210.488281 192.117188 L 195.433594 207.171875 C 191.039062 211.566406 183.917969 211.566406 179.523438 207.171875 L 97.628906 125.28125 C 93.238281 120.886719 93.238281 113.761719 97.628906 109.371094 Z M 97.628906 109.371094 " clip-rule="nonzero"/></clipPath><clipPath id="b46f9af111"><path d="M 88.714844 90.996094 L 131.089844 90.996094 L 131.089844 124.789062 L 88.714844 124.789062 Z M 88.714844 90.996094 " clip-rule="nonzero"/></clipPath><clipPath id="c9d9b763bb"><path d="M 99.964844 90.996094 L 119.789062 90.996094 C 126 90.996094 131.039062 96.03125 131.039062 102.246094 L 131.039062 113.539062 C 131.039062 119.753906 126 124.789062 119.789062 124.789062 L 99.964844 124.789062 C 93.75 124.789062 88.714844 119.753906 88.714844 113.539062 L 88.714844 102.246094 C 88.714844 96.03125 93.75 90.996094 99.964844 90.996094 Z M 99.964844 90.996094 " clip-rule="nonzero"/></clipPath></defs><g clip-path="url(#0a812ac929)"><path fill="#e8e8e8" d="M 131.039062 124.789062 L 242.699219 124.789062 L 242.699219 157.3125 L 131.039062 157.3125 Z M 131.039062 124.789062 " fill-opacity="1" fill-rule="nonzero"/></g><g clip-path="url(#35aa52de10)"><g clip-path="url(#97e39aaf8c)"><path fill="#e8e8e8" d="M 156.207031 152.894531 L 218.441406 152.894531 L 218.441406 215.132812 L 156.207031 215.132812 Z M 156.207031 152.894531 " fill-opacity="1" fill-rule="nonzero"/></g></g><g clip-path="url(#9fac576c79)"><g clip-path="url(#becf59b84e)"><path fill="#5c946e" d="M 40.910156 12.953125 L 334.089844 12.953125 L 334.089844 354.238281 L 40.910156 354.238281 Z M 40.910156 12.953125 " fill-opacity="1" fill-rule="nonzero"/></g></g><g clip-path="url(#b26c705667)"><g clip-path="url(#4bb848f88a)"><path fill="#0e1c36" d="M 89.882812 176.132812 L 132.207031 176.132812 L 132.207031 276.324219 L 89.882812 276.324219 Z M 89.882812 176.132812 " fill-opacity="1" fill-rule="nonzero"/></g></g><g clip-path="url(#b11cfe5e99)"><g clip-path="url(#a3eded812b)"><path fill="#0e1c36" d="M 242.648438 90.824219 L 284.972656 90.824219 L 284.972656 276.160156 L 242.648438 276.160156 Z M 242.648438 90.824219 " fill-opacity="1" fill-rule="nonzero"/></g></g><g clip-path="url(#be5752f233)"><g clip-path="url(#ac177a801e)"><g clip-path="url(#01c6b33a74)"><path fill="#0e1c36" d="M 254.003906 86.367188 L 284.96875 117.332031 L 187.113281 215.1875 L 156.148438 184.222656 Z M 254.003906 86.367188 " fill-opacity="1" fill-rule="nonzero"/></g></g></g><g clip-path="url(#a5fbe45791)"><g clip-path="url(#497c6e113c)"><g clip-path="url(#786c342364)"><path fill="#0e1c36" d="M 89.675781 117.324219 L 120.640625 86.359375 L 218.496094 184.214844 L 187.53125 215.179688 Z M 89.675781 117.324219 " fill-opacity="1" fill-rule="nonzero"/></g></g></g><g clip-path="url(#b46f9af111)"><g clip-path="url(#c9d9b763bb)"><path fill="#0e1c36" d="M 88.714844 90.996094 L 131.089844 90.996094 L 131.089844 124.789062 L 88.714844 124.789062 Z M 88.714844 90.996094 " fill-opacity="1" fill-rule="nonzero"/></g></g><path stroke-linecap="butt" transform="matrix(0.52484, 0.535764, -0.535764, 0.52484, 84.73341, 112.12571)" fill="none" stroke-linejoin="miter" d="M -0.00123658 2.002009 L 82.381063 2.000534 " stroke="#5c946e" stroke-width="4" stroke-opacity="1" stroke-miterlimit="4"/></svg>